<?xml version="1.0" encoding="UTF-8"?><svg id="a" xmlns="http://www.w3.org/2000/svg" xmlns:xlink="http://www.w3.org/1999/xlink" viewBox="0 0 799.9999993 799.9999997"><defs><style>.d{fill:url(#c);}.d,.e{stroke-width:0px;}.e{fill:url(#b);}</style><linearGradient id="b" x1="5.9836035" y1="330.5242784" x2="720.728966" y2="456.5531701" gradientUnits="userSpaceOnUse"><stop offset="0" stop-color="#5e94ff"/><stop offset="1" stop-color="#808eff"/></linearGradient><linearGradient id="c" x1="471.2736641" y1="361.9499295" x2="817.1914718" y2="422.9445721" gradientUnits="userSpaceOnUse"><stop offset="0" stop-color="#b5b8ff"/><stop offset="1" stop-color="#c3b5ff"/></linearGradient></defs><path class="e" d="m399.9999993,649.9999997c-137.9139212,0-249.7450202-111.6740323-249.999564-249.5283651-.2543356-137.7416043,112.0778386-250.3745743,249.8196436-250.4715713,67.3477592-.0474259,128.486448,26.5359695,173.4652554,69.7991483,1.9592772,1.8845444,5.0659295,1.8495235,6.9882035-.0727505l99.0113164-99.0113164c1.9613176-1.9613176,1.9635126-5.1567601-.0221694-7.0934067C606.9475558,43.0923945,508.0188266-.2758861,398.9606867.001321,178.0793355.5627635-.0004883,179.1188392,0,400.0009039c.0004884,220.9134642,179.0864216,399.9990958,399.9999993,399.9990958,108.6463268,0,207.1756419-43.3156999,279.2608189-113.619915,1.9864191-1.9373419,1.9842259-5.1350402.022192-7.0970742l-99.0091603-99.0091603c-1.9197795-1.9197795-5.0253061-1.9615253-6.9819729-.0793559-44.9393655,43.2283635-106.0118894,69.8055053-173.2918777,69.8055053Z"/><path class="d" d="m689.6059776,279.9999997l.0000003,141.991751c.0000001,56.3194228-45.2225869,102.8127314-101.5416725,103.0076246-56.4445343.1953273-102.2626756-45.5024389-102.2626756-101.9015494v-143.0978261c0-2.7614237,2.2385763-5,5-5h49.4429348c2.7614238,0,5,2.2385763,5,5l-.0000003,142.3990101c0,23.2836933,18.4529206,42.7632343,41.7333683,43.1519903,23.7818937.3971296,43.1851102-18.7621085,43.1851102-42.4531744v-143.0978261c0-2.7614237,2.2385763-5,5-5h49.4429348c2.7614237,0,5,2.2385762,5,5Zm50.9510869,0v240c0,2.7614237,2.2385763,5,5,5h49.4429348c2.7614237,0,5-2.2385763,5-5v-240c0-2.7614237-2.2385763-5-5-5h-49.4429348c-2.7614237,0-5,2.2385763-5,5Z"/></svg>